# xmcd
#
# Track frame offsets: 
#        150
#        13532
#        34875
#        51882
#        67947
#        77047
#        88260
#        108040
#        141087
#        158712
#        172405
#
# Disc length: 2574 seconds
#
# Revision: 0
# Processed by: cddbd v1.4PL0 Copyright (c) Steve Scherf et al.
# Submitted via: ExactAudioCopy v0.95a3
#
DISCID=8b0a0c0b
DTITLE=Lightning Red - Red's Blues
DYEAR=1900
DGENRE=Blues
TTITLE0=Like An Angel
TTITLE1=East St. Louis
TTITLE2=Let Me Love You
TTITLE3=Irene
TTITLE4=Austin Boogie
TTITLE5=Red's Blues
TTITLE6=One Man's Heaven
TTITLE7=If You See Me
TTITLE8=Big City Blues
TTITLE9=How Much?
TTITLE10=Got The Power
EXTD=
EXTT0=
EXTT1=
EXTT2=
EXTT3=
EXTT4=
EXTT5=
EXTT6=
EXTT7=
EXTT8=
EXTT9=
EXTT10=
PLAYORDER=
